<svg width="38" height="36" viewBox="0 0 38 36" fill="none" xmlns="http://www.w3.org/2000/svg">
<path d="M36.7346 13.5535H23.3711V0.761234C23.3607 0.550127 23.2715 0.351862 23.1229 0.209468C22.9743 0.0670738 22.7782 -0.00795854 22.5773 0.00066964H14.9109C14.8119 -0.00357615 14.7131 0.0127639 14.6201 0.0487026C14.5272 0.0846412 14.4418 0.139472 14.369 0.210113C14.2962 0.280753 14.2374 0.365801 14.1959 0.460367C14.1544 0.554934 14.131 0.657167 14.1272 0.761234V13.5535H0.783725C0.585482 13.5449 0.392004 13.6188 0.245276 13.7592C0.0985482 13.8996 0.0104121 14.0952 0 14.3035V21.6451C0.0104119 21.8543 0.0982033 22.0509 0.244632 22.193C0.391061 22.3351 0.584525 22.4114 0.783725 22.4056H14.1472V35.1979C14.1577 35.4062 14.2458 35.6018 14.3925 35.7422C14.5392 35.8826 14.7327 35.9565 14.931 35.9478H22.5974C22.7967 35.9566 22.9913 35.883 23.1396 35.7428C23.288 35.6027 23.3783 35.4071 23.3912 35.1979V22.3634H36.7547C36.953 22.372 37.1465 22.2981 37.2932 22.1577C37.4399 22.0172 37.528 21.8217 37.5384 21.6134V14.2718C37.528 14.0635 37.4399 13.8679 37.2932 13.7275C37.1465 13.5871 36.953 13.5132 36.7547 13.5218" fill="#65D240"/>
</svg>
