<svg width="122" height="36" viewBox="0 0 122 36" fill="none" xmlns="http://www.w3.org/2000/svg">
<g clip-path="url(#clip0_3029_1594)">
<path d="M5.98846 35.9473H0.793767C0.694773 35.953 0.595683 35.9381 0.502174 35.9035C0.408664 35.8689 0.322571 35.8152 0.248833 35.7455C0.175095 35.6758 0.115158 35.5915 0.0724575 35.4975C0.0297567 35.4034 0.00513927 35.3014 0 35.1973V0.760685C0.00385169 0.655686 0.0275203 0.552557 0.0696518 0.457272C0.111783 0.361986 0.171528 0.276476 0.245399 0.205695C0.31927 0.134915 0.405792 0.0802824 0.499935 0.0449943C0.594079 0.00970628 0.693965 -0.00556158 0.793767 0.000120593H5.97842C6.17932 -0.00850758 6.37535 0.0665248 6.52396 0.208919C6.67258 0.351313 6.76177 0.549577 6.77218 0.760685V35.1973C6.75924 35.4065 6.66894 35.6021 6.52061 35.7423C6.37227 35.8825 6.17768 35.956 5.97842 35.9473" fill="#CED3D9"/>
<path d="M36.9784 35.9483H31.7938C31.6948 35.954 31.5957 35.9392 31.5022 35.9045C31.4087 35.8699 31.3226 35.8162 31.2488 35.7465C31.1751 35.6769 31.1152 35.5926 31.0725 35.4985C31.0298 35.4044 31.0051 35.3024 31 35.1983V0.761723C31.0039 0.656724 31.0275 0.553595 31.0697 0.458309C31.1118 0.363024 31.1715 0.277513 31.2454 0.206733C31.3193 0.135952 31.4058 0.08132 31.4999 0.0460319C31.5941 0.0107439 31.694 -0.00452399 31.7938 0.00115819H36.9784C37.0774 -0.0030876 37.1762 0.0132525 37.2692 0.0491911C37.3622 0.0851298 37.4475 0.13996 37.5203 0.210601C37.5931 0.281242 37.6519 0.366289 37.6934 0.460856C37.7349 0.555423 37.7583 0.657656 37.7621 0.761723V35.1983C37.7517 35.4067 37.6636 35.6023 37.5169 35.7427C37.3701 35.8831 37.1767 35.957 36.9784 35.9483" fill="#CED3D9"/>
<path d="M38.6135 35.2394V30.2746C38.6265 30.0654 38.7168 29.8698 38.8651 29.7296C39.0134 29.5895 39.208 29.5159 39.4073 29.5246H52.6804C52.8786 29.516 53.0721 29.5899 53.2188 29.7303C53.3656 29.8707 53.4537 30.0663 53.4641 30.2746V35.2394C53.4602 35.3435 53.4369 35.4457 53.3954 35.5403C53.3539 35.6348 53.295 35.7199 53.2223 35.7905C53.1495 35.8612 53.0642 35.916 52.9712 35.952C52.8782 35.9879 52.7794 36.0042 52.6804 36H39.4374C39.2365 36.0086 39.0405 35.9336 38.8919 35.7912C38.7433 35.6488 38.6541 35.4505 38.6437 35.2394" fill="#7E93AC"/>
<path d="M95.8857 5.72536V0.760563C95.8962 0.549455 95.9854 0.351191 96.134 0.208797C96.2826 0.0664025 96.4786 -0.00862993 96.6795 -1.74623e-06H104.115C104.316 -0.00862993 104.512 0.0664025 104.66 0.208797C104.809 0.351191 104.898 0.549455 104.909 0.760563V5.72536C104.904 5.82945 104.879 5.93146 104.836 6.02552C104.793 6.11959 104.734 6.20388 104.66 6.27355C104.586 6.34322 104.5 6.39691 104.406 6.43155C104.313 6.46618 104.214 6.48105 104.115 6.47536H96.6795C96.4803 6.48407 96.2856 6.41051 96.1373 6.27036C95.989 6.13021 95.8987 5.93459 95.8857 5.72536" fill="#7E93AC"/>
<path d="M112.967 5.72537V0.760567C112.977 0.551351 113.065 0.354706 113.212 0.212605C113.358 0.0705037 113.552 -0.00579659 113.751 2.78941e-06H121.196C121.395 -0.00579659 121.589 0.0705037 121.735 0.212605C121.882 0.354706 121.969 0.551351 121.98 0.760567V5.72537C121.969 5.93367 121.881 6.12927 121.735 6.26969C121.588 6.4101 121.394 6.48399 121.196 6.47536H113.771C113.573 6.48399 113.379 6.4101 113.232 6.26969C113.086 6.12927 112.998 5.93367 112.987 5.72537" fill="#7E93AC"/>
<path d="M111.631 35.9472H106.285C106.186 35.9529 106.087 35.9381 105.994 35.9034C105.9 35.8688 105.814 35.8151 105.74 35.7454C105.667 35.6758 105.607 35.5915 105.564 35.4974C105.521 35.4033 105.497 35.3013 105.491 35.1972V0.760624C105.495 0.655625 105.519 0.552496 105.561 0.457211C105.603 0.361925 105.663 0.276415 105.737 0.205634C105.811 0.134854 105.897 0.0802213 105.991 0.0449333C106.086 0.00964524 106.185 -0.00562262 106.285 5.95585e-05H111.631C111.73 -0.00562262 111.83 0.00964524 111.924 0.0449333C112.019 0.0802213 112.105 0.134854 112.179 0.205634C112.253 0.276415 112.313 0.361925 112.355 0.457211C112.397 0.552496 112.421 0.655625 112.424 0.760624V35.1972C112.419 35.3013 112.395 35.4033 112.352 35.4974C112.309 35.5915 112.249 35.6758 112.176 35.7454C112.102 35.8151 112.016 35.8688 111.922 35.9034C111.829 35.9381 111.73 35.9529 111.631 35.9472" fill="#CED3D9"/>
<path d="M92.6504 13.5528H79.2869V0.760563C79.2765 0.549455 79.1873 0.351191 79.0387 0.208796C78.8901 0.0664024 78.694 -0.00862992 78.4931 -1.74638e-06H70.8267C70.7277 -0.00424754 70.6289 0.0120925 70.5359 0.0480312C70.4429 0.0839698 70.3576 0.1388 70.2848 0.209441C70.212 0.280082 70.1532 0.365129 70.1117 0.459696C70.0702 0.554263 70.0468 0.656496 70.0429 0.760563V13.5528H56.6995C56.5013 13.5442 56.3078 13.6181 56.161 13.7585C56.0143 13.8989 55.9262 14.0945 55.9158 14.3028V21.6444C55.9262 21.8536 56.014 22.0502 56.1604 22.1923C56.3068 22.3344 56.5003 22.4107 56.6995 22.4049H70.063V35.1972C70.0734 35.4055 70.1616 35.6011 70.3083 35.7415C70.455 35.8819 70.6485 35.9558 70.8467 35.9472H78.5132C78.7125 35.9559 78.9071 35.8823 79.0554 35.7422C79.2037 35.602 79.294 35.4064 79.307 35.1972V22.3627H92.6705C92.8687 22.3713 93.0622 22.2974 93.209 22.157C93.3557 22.0166 93.4438 21.821 93.4542 21.6127V14.2711C93.4438 14.0628 93.3557 13.8673 93.209 13.7268C93.0622 13.5864 92.8687 13.5125 92.6705 13.5211" fill="#65D240"/>
<path d="M13.8258 6.5176H8.11869C7.92044 6.52623 7.72697 6.45231 7.58024 6.31189C7.43351 6.17148 7.34537 5.97591 7.33496 5.76761V0.802804C7.34537 0.593588 7.43316 0.396943 7.57959 0.254841C7.72602 0.11274 7.91949 0.0364397 8.11869 0.0422391H13.8258C20.4774 0.0422391 25.8831 5.20772 25.8831 11.588C25.8831 17.9683 20.4875 23.1232 13.8258 23.1232H8.11869C7.92044 23.1319 7.72697 23.0579 7.58024 22.9175C7.43351 22.7771 7.34537 22.5815 7.33496 22.3732V17.4084C7.33884 17.3044 7.36221 17.2021 7.40371 17.1076C7.44521 17.013 7.50404 16.928 7.57683 16.8573C7.64963 16.7867 7.73494 16.7318 7.82792 16.6959C7.9209 16.6599 8.0197 16.6436 8.11869 16.6479H13.8258C14.4948 16.7122 15.1692 16.6292 15.806 16.4042C16.4428 16.1792 17.028 15.817 17.5241 15.3409C18.0203 14.8648 18.4167 14.2852 18.6879 13.639C18.959 12.9928 19.0991 12.2943 19.0991 11.588C19.0991 10.8817 18.959 10.1832 18.6879 9.53706C18.4167 8.89089 18.0203 8.31127 17.5241 7.83515C17.028 7.35903 16.4428 6.99688 15.806 6.77185C15.1692 6.54681 14.4948 6.46383 13.8258 6.52817" fill="#7E93AC"/>
</g>
<defs>
<clipPath id="clip0_3029_1594">
<rect width="122" height="36" fill="white"/>
</clipPath>
</defs>
</svg>
